<?xml version="1.0" standalone="no"?>
<!DOCTYPE svg PUBLIC "-//W3C//DTD SVG 20010904//EN"
 "http://www.w3.org/TR/2001/REC-SVG-20010904/DTD/svg10.dtd">
<svg version="1.0" xmlns="http://www.w3.org/2000/svg"
 width="300.000000pt" height="289.000000pt" viewBox="0 0 300.000000 289.000000"
 preserveAspectRatio="xMidYMid meet">
<metadata>
Created by potrace 1.10, written by Peter Selinger 2001-2011
</metadata>
<g transform="translate(0.000000,289.000000) scale(0.100000,-0.100000)"
fill="#000000" stroke="none">
<path d="M2100 2680 c0 -5 4 -10 9 -10 5 0 11 -9 14 -21 3 -12 10 -18 16 -14
7 4 5 14 -6 30 -19 26 -33 32 -33 15z"/>
<path d="M2150 2616 c0 -12 45 -86 52 -86 5 0 6 -4 3 -10 -3 -5 1 -10 10 -10
14 0 13 5 -6 38 -13 20 -28 45 -33 55 -10 15 -26 24 -26 13z"/>
<path d="M2231 2473 c8 -10 20 -24 27 -31 6 -7 12 -19 12 -25 0 -7 11 -24 25
-39 14 -15 25 -34 25 -41 0 -8 7 -20 15 -27 8 -7 15 -19 15 -26 0 -8 5 -14 10
-14 18 0 10 25 -25 79 -19 29 -35 55 -35 57 0 11 -64 84 -73 84 -5 0 -3 -8 4
-17z"/>
<path d="M2373 2249 c-8 -8 -3 -18 23 -41 19 -17 34 -36 34 -44 0 -8 16 -38
36 -66 19 -29 38 -65 41 -80 3 -15 12 -28 19 -28 8 0 14 -4 14 -9 0 -4 20 -39
45 -76 24 -37 42 -72 39 -77 -4 -5 3 -16 14 -24 11 -7 28 -30 39 -51 37 -72
77 -138 130 -216 29 -43 53 -81 53 -85 1 -12 49 -67 54 -61 3 2 -8 25 -25 49
-16 25 -34 52 -39 60 -5 8 -20 31 -33 50 -20 30 -48 78 -127 215 -39 68 -115
192 -135 220 -12 17 -27 42 -35 57 -7 15 -20 36 -29 46 -17 19 -31 41 -63 103
-11 21 -24 39 -28 39 -5 0 -10 7 -12 16 -2 11 -6 12 -15 3z"/>
<path d="M870 2080 c0 -8 -3 -26 -7 -39 -4 -17 -3 -22 5 -17 7 4 12 0 13 -11
0 -10 5 -5 10 12 5 19 5 31 -2 36 -7 4 -6 8 4 12 7 3 20 1 28 -4 8 -4 24 -6
35 -3 16 4 24 0 29 -15 3 -12 13 -21 21 -21 19 0 17 10 -4 38 -15 20 -29 24
-75 25 -45 2 -57 -1 -57 -13z"/>
<path d="M1280 2040 c0 -5 6 -13 13 -17 8 -4 19 -17 25 -28 10 -18 11 -19 17
-2 5 11 -1 23 -16 37 -26 21 -39 25 -39 10z"/>
<path d="M1090 2010 c0 -6 11 -15 24 -20 13 -5 29 -17 35 -27 10 -17 10 -16
11 3 0 24 -14 38 -47 48 -14 5 -23 3 -23 -4z"/>
<path d="M1390 1950 c-14 -11 -20 -20 -15 -19 6 0 18 6 29 14 19 15 52 6 68
-19 4 -6 11 -7 15 -2 10 10 -34 46 -56 46 -9 0 -27 -9 -41 -20z"/>
<path d="M840 1928 c0 -15 5 -30 11 -33 14 -9 16 -6 24 30 5 23 4 26 -4 15
-10 -13 -12 -13 -21 0 -8 12 -10 9 -10 -12z"/>
<path d="M1534 1924 c3 -9 6 -23 6 -32 0 -21 15 -5 25 26 5 18 3 22 -15 22
-16 0 -20 -4 -16 -16z"/>
<path d="M1741 1903 c0 -12 59 -56 59 -46 0 13 -39 53 -50 53 -6 0 -10 -3 -9
-7z"/>
<path d="M1944 1895 c-4 -8 -2 -21 3 -28 10 -13 10 -15 -1 -69 -5 -21 -12 -35
-17 -32 -5 3 -9 -2 -9 -10 0 -22 -18 -20 -59 5 -18 11 -36 18 -38 15 -9 -9 25
-36 46 -36 11 0 22 -4 25 -9 3 -4 17 -6 31 -4 13 3 23 9 20 13 -3 4 2 24 10
44 17 40 20 126 5 126 -6 0 -13 -7 -16 -15z"/>
<path d="M1854 1870 c-27 -10 0 -22 31 -14 14 3 25 10 25 14 0 10 -29 9 -56 0z"/>
<path d="M388 1807 c-10 -7 -18 -36 -21 -77 -4 -36 -9 -80 -13 -97 -5 -27 -3
-33 10 -33 16 0 18 8 21 120 3 73 3 74 20 60 8 -6 14 -15 13 -18 -2 -18 3 -32
11 -32 11 0 2 50 -14 72 -9 14 -15 15 -27 5z"/>
<path d="M504 1797 c-9 -25 -11 -117 -2 -117 4 0 8 9 8 19 0 11 5 23 11 27 8
5 8 9 -1 14 -9 6 -9 12 0 30 8 16 9 25 1 33 -7 7 -12 6 -17 -6z"/>
<path d="M570 1780 c12 -23 35 -22 35 1 0 8 -10 15 -23 17 -21 3 -22 1 -12
-18z"/>
<path d="M662 1777 c-5 -12 -13 -31 -17 -42 -5 -16 -1 -15 20 7 26 28 31 43
17 52 -5 3 -14 -5 -20 -17z"/>
<path d="M751 1759 c-7 -16 -17 -27 -22 -23 -12 7 -11 -17 1 -36 8 -13 10 -12
10 3 0 11 9 32 20 47 11 16 17 31 12 34 -4 2 -14 -9 -21 -25z"/>
<path d="M1233 1725 c-15 -16 -6 -25 24 -25 27 0 30 11 5 26 -13 8 -20 8 -29
-1z"/>
<path d="M580 1670 c0 -6 -11 -23 -25 -38 -35 -38 -30 -59 7 -29 16 12 36 77
24 77 -3 0 -6 -5 -6 -10z"/>
<path d="M450 1657 c0 -28 13 -57 25 -57 23 0 22 24 -2 47 -13 12 -23 17 -23
10z"/>
<path d="M1698 1662 c-20 -4 -25 -22 -7 -22 7 0 18 -8 25 -17 11 -15 13 -15
13 -3 -1 28 -14 46 -31 42z"/>
<path d="M1205 1650 c-4 -6 1 -18 11 -25 36 -27 48 -11 15 19 -13 12 -21 14
-26 6z"/>
<path d="M640 1625 c0 -8 9 -19 19 -25 28 -15 33 -12 19 10 -16 25 -38 34 -38
15z"/>
<path d="M1004 1621 c8 -13 -4 -42 -15 -35 -12 7 -11 -7 1 -26 6 -10 10 -11
10 -2 0 6 6 12 13 12 9 0 12 10 9 30 -2 17 -9 30 -14 30 -5 0 -7 -4 -4 -9z"/>
<path d="M1898 1613 c-16 -2 -28 -9 -28 -15 0 -7 14 -8 38 -5 30 5 40 3 50
-13 12 -20 52 -28 52 -11 0 15 -51 51 -69 50 -9 -1 -28 -4 -43 -6z"/>
<path d="M1284 1595 c-22 -17 -22 -17 29 -19 39 -1 44 3 25 22 -16 16 -30 15
-54 -3z"/>
<path d="M2157 1563 c-2 -5 -7 -20 -11 -35 -5 -21 -3 -26 7 -22 16 6 42 -39
33 -55 -4 -6 -3 -11 3 -11 5 0 11 6 14 13 4 10 7 10 18 0 17 -17 26 -16 26 1
0 8 -12 18 -26 21 -31 8 -41 21 -41 57 0 26 -14 46 -23 31z"/>
<path d="M1220 1540 c0 -5 -10 -10 -22 -10 -27 0 -21 -5 15 -14 23 -5 27 -3
27 14 0 11 -4 20 -10 20 -5 0 -10 -4 -10 -10z"/>
<path d="M1833 1511 c0 -20 4 -28 14 -24 7 3 13 11 13 18 0 7 -6 18 -13 24
-11 8 -14 5 -14 -18z"/>
<path d="M2272 1505 c-9 -20 -8 -26 5 -33 14 -9 14 -13 0 -57 -10 -29 -13 -53
-8 -63 16 -28 34 25 29 85 -3 30 -1 56 4 59 4 3 8 12 8 20 0 23 -26 16 -38
-11z"/>
<path d="M2365 1500 c-4 -6 -4 -14 -1 -17 3 -3 -2 -11 -11 -18 -10 -8 -14 -19
-9 -30 6 -17 9 -15 26 13 23 37 52 41 89 13 17 -13 22 -23 16 -39 -7 -23 -29
-29 -40 -12 -3 6 -17 10 -31 10 -13 0 -24 -4 -24 -10 0 -5 -8 -10 -17 -10 -13
0 -18 -8 -19 -29 -1 -21 3 -28 12 -24 8 3 14 11 14 18 0 24 27 37 49 23 14 -9
28 -9 48 -2 38 13 40 68 3 95 -32 23 -95 35 -105 19z"/>
<path d="M550 1477 c0 -9 -9 -21 -20 -27 -25 -13 -27 -43 -2 -38 9 2 17 8 18
13 2 27 17 43 37 39 13 -2 16 -1 7 2 -8 4 -21 11 -27 17 -9 7 -13 5 -13 -6z"/>
<path d="M2029 1470 c26 -22 65 -27 58 -7 -2 6 -13 12 -25 12 -11 0 -24 4 -28
8 -4 4 -12 7 -18 7 -6 -1 0 -10 13 -20z"/>
<path d="M1945 1461 c-3 -6 -17 -11 -31 -11 -14 0 -22 -4 -19 -10 7 -12 48
-13 59 -3 4 4 14 8 22 8 7 0 15 5 16 10 4 14 -39 19 -47 6z"/>
<path d="M760 1440 c-9 -16 -8 -19 6 -13 9 3 20 0 24 -8 12 -19 23 -5 15 20
-8 27 -31 27 -45 1z"/>
<path d="M2127 1424 c-4 -4 -7 -16 -7 -26 0 -14 6 -19 22 -16 24 3 37 28 15
28 -9 0 -17 5 -19 11 -2 5 -7 7 -11 3z"/>
<path d="M1293 1376 c10 -8 15 -21 12 -32 -3 -11 0 -8 7 6 7 14 17 28 23 32 5
4 -6 8 -25 8 -31 -1 -33 -2 -17 -14z"/>
<path d="M615 1369 c-4 -6 -13 -8 -21 -5 -9 4 -14 -2 -14 -15 0 -16 3 -18 19
-10 10 6 21 17 25 26 6 17 0 20 -9 4z"/>
<path d="M1495 1361 c-3 -6 4 -15 15 -21 17 -9 20 -8 20 10 0 20 -24 28 -35
11z"/>
<path d="M2932 1351 c7 -12 16 -21 20 -21 5 0 8 -6 8 -14 0 -7 7 -19 15 -26
22 -18 18 2 -7 40 -26 38 -59 57 -36 21z"/>
<path d="M906 1335 c3 -8 -4 -28 -16 -45 -19 -27 -20 -50 -2 -50 10 0 32 50
32 72 0 10 6 18 13 18 8 0 7 4 -3 10 -22 14 -30 12 -24 -5z"/>
<path d="M1149 1326 c-4 -4 -4 -27 -1 -51 4 -37 2 -45 -12 -45 -9 0 -16 -4
-16 -10 0 -15 15 -12 32 8 11 12 14 29 9 60 -3 24 -9 41 -12 38z"/>
<path d="M512 1304 c-17 -12 -20 -19 -12 -29 12 -14 53 -8 44 6 -3 5 -10 7
-15 4 -13 -9 -11 9 3 23 17 17 7 15 -20 -4z"/>
<path d="M574 1278 c-7 -11 -5 -14 24 -22 16 -5 22 -3 22 7 0 17 -37 30 -46
15z"/>
<path d="M1943 1276 c4 -9 1 -16 -5 -16 -9 0 -8 -4 1 -12 10 -11 15 -10 25 4
15 20 63 19 73 -2 10 -22 10 -33 1 -57 -4 -12 -3 -25 2 -28 14 -8 28 26 28 67
0 42 -8 47 -82 54 -41 4 -48 3 -43 -10z"/>
<path d="M1268 1215 c2 -14 11 -25 18 -25 20 0 17 28 -5 39 -16 9 -17 7 -13
-14z"/>
<path d="M2171 1228 c-32 -7 -40 -13 -32 -21 9 -9 16 -8 31 1 11 6 24 12 30
12 12 0 13 -33 1 -45 -17 -18 -31 -109 -18 -117 24 -15 29 -7 23 37 -4 25 -3
45 2 45 5 0 9 6 9 13 1 6 4 29 7 50 3 20 2 37 -2 36 -4 -1 -27 -6 -51 -11z"/>
<path d="M599 1149 c-7 -4 -18 -5 -26 -2 -17 7 -63 -23 -63 -42 0 -7 -6 -20
-14 -27 -9 -10 -12 -26 -7 -53 8 -51 55 -85 116 -85 34 0 45 5 63 29 23 32 21
41 -9 34 -11 -3 -19 -14 -19 -25 0 -18 -4 -20 -42 -14 -46 7 -73 26 -81 56 -6
23 28 100 45 101 7 0 22 2 33 5 24 4 77 -15 70 -26 -3 -5 0 -12 6 -16 6 -3 15
0 20 7 18 29 -60 78 -92 58z"/>
<path d="M820 1130 c0 -6 7 -13 15 -16 8 -4 15 -15 15 -25 0 -11 6 -35 14 -54
13 -31 13 -36 -2 -46 -16 -10 -15 -10 1 -5 13 4 18 1 16 -12 -3 -35 1 -53 12
-46 12 7 6 52 -16 119 -7 22 -16 52 -19 68 -6 25 -36 40 -36 17z"/>
<path d="M985 1105 c2 -16 -2 -25 -11 -25 -8 0 -14 -4 -14 -10 0 -16 26 -11
44 8 15 18 15 20 -3 36 -17 16 -18 16 -16 -9z"/>
<path d="M1071 1079 c-14 -41 -7 -49 11 -12 8 15 19 27 24 26 5 -1 22 -5 37
-8 15 -4 27 -3 27 2 0 5 -6 10 -12 10 -7 0 -27 3 -44 7 -29 7 -33 4 -43 -25z"/>
<path d="M966 998 c3 -27 1 -49 -6 -53 -6 -3 -8 -11 -4 -16 9 -15 33 9 28 29
-2 9 -8 33 -14 52 -9 33 -9 32 -4 -12z"/>
<path d="M1888 992 c-10 -2 -18 -10 -18 -17 0 -8 -9 -20 -19 -27 -16 -11 -19
-26 -19 -73 0 -68 9 -85 41 -78 21 4 22 4 3 -11 -19 -15 -17 -16 32 -16 29 0
52 4 52 10 0 5 -7 7 -15 4 -9 -4 -15 0 -15 7 0 11 -3 11 -11 -1 -8 -12 -12
-12 -16 -2 -3 7 -16 17 -28 22 -18 7 -23 15 -20 36 1 16 -2 35 -8 45 -8 13 -5
22 11 40 12 12 22 27 22 32 0 5 13 7 29 5 20 -3 27 0 24 8 -6 15 -23 22 -45
16z"/>
<path d="M733 980 c-25 -10 -26 -11 -17 -34 8 -20 24 -21 24 -1 0 8 4 15 9 15
5 0 11 7 15 15 6 17 1 18 -31 5z"/>
<path d="M1950 945 c0 -21 22 -65 33 -65 5 0 6 7 3 16 -3 9 -6 24 -6 34 0 10
-7 20 -15 24 -9 3 -15 0 -15 -9z"/>
<path d="M2133 890 c3 -69 27 -69 27 0 0 37 -4 50 -15 50 -11 0 -14 -12 -12
-50z"/>
<path d="M1200 903 c0 -13 5 -23 10 -23 6 0 13 0 18 0 4 0 7 5 7 10 0 6 -4 10
-9 9 -5 0 -13 5 -17 13 -6 9 -9 7 -9 -9z"/>
<path d="M1366 884 c-8 -31 -5 -37 18 -28 10 4 15 13 12 21 -3 8 -6 19 -6 24
0 20 -18 7 -24 -17z"/>
<path d="M1635 853 c8 -34 24 -55 36 -47 11 7 0 56 -15 66 -21 14 -28 8 -21
-19z"/>
<path d="M1331 821 c-7 -5 -9 -11 -4 -14 15 -9 163 -16 163 -7 0 16 -137 34
-159 21z"/>
<path d="M1288 769 c-10 -5 -18 -17 -18 -24 0 -20 10 -19 26 3 10 12 16 14 21
5 11 -16 94 -43 107 -35 6 4 24 7 39 8 41 2 60 24 22 25 -89 2 -122 6 -142 17
-26 14 -33 15 -55 1z"/>
<path d="M2100 772 c0 -16 25 -26 47 -18 13 5 14 9 4 19 -9 9 -14 9 -21 -3 -9
-13 -11 -13 -20 0 -7 11 -10 11 -10 2z"/>
<path d="M1534 752 c-7 -5 -7 -14 2 -30 l11 -23 6 23 c7 25 -3 41 -19 30z"/>
<path d="M990 533 c0 -5 5 -15 10 -23 7 -11 12 -12 21 -3 6 6 8 16 5 22 -8 12
-36 15 -36 4z"/>
<path d="M1094 508 c-3 -4 16 -8 42 -8 26 0 44 3 40 7 -10 10 -76 11 -82 1z"/>
<path d="M332 501 c-17 -10 -44 -182 -31 -196 18 -18 27 16 22 81 -3 58 -2 65
22 86 14 12 25 25 25 30 0 10 -21 10 -38 -1z"/>
<path d="M1280 488 c0 -4 6 -8 13 -8 6 0 22 -3 35 -6 12 -4 22 -2 22 4 0 5
-16 12 -35 14 -19 2 -35 0 -35 -4z"/>
<path d="M477 475 c-4 -8 -4 -24 -2 -36 2 -12 0 -30 -5 -40 -7 -12 -7 -20 0
-24 5 -3 10 1 10 9 0 9 5 16 11 16 7 0 9 10 7 25 -4 17 -1 25 8 25 8 0 14 9
14 20 0 24 -35 28 -43 5z"/>
<path d="M1500 469 c0 -7 -12 -10 -29 -7 -17 2 -28 1 -25 -4 3 -4 23 -8 45 -8
28 0 39 4 39 15 0 8 -7 15 -15 15 -8 0 -15 -5 -15 -11z"/>
<path d="M376 441 c-6 -10 23 -75 31 -67 7 7 -7 65 -17 71 -5 3 -11 1 -14 -4z"/>
<path d="M753 443 c-7 -2 -13 -14 -13 -25 0 -16 3 -18 14 -9 11 9 15 9 19 -1
7 -22 19 -1 12 21 -6 21 -11 23 -32 14z"/>
<path d="M595 419 c4 -6 13 -8 21 -5 8 3 17 -1 20 -8 3 -8 14 -14 24 -13 18 1
18 3 3 19 -17 19 -79 26 -68 7z"/>
<path d="M1058 423 c-26 -7 -22 -20 7 -25 19 -4 25 -1 25 13 0 19 -2 20 -32
12z"/>
<path d="M1360 331 c0 -6 5 -11 11 -11 5 0 8 -4 5 -9 -4 -5 2 -8 11 -7 26 4
22 30 -4 34 -13 2 -23 -1 -23 -7z"/>
<path d="M1672 333 c-10 -4 -9 -9 4 -24 23 -25 36 -24 32 3 -3 23 -15 30 -36
21z"/>
<path d="M440 306 c0 -18 17 -29 30 -21 8 5 7 11 -1 21 -15 18 -29 18 -29 0z"/>
<path d="M657 297 c-20 -20 -79 -19 -100 2 -13 13 -27 14 -27 3 0 -13 50 -35
86 -38 21 -2 37 3 49 16 23 25 15 41 -8 17z"/>
<path d="M1115 273 c1 -57 26 -79 80 -69 44 9 56 26 15 23 -16 -1 -30 -6 -30
-12 0 -7 -3 -7 -8 0 -4 6 -14 10 -22 10 -19 0 -21 63 -2 70 17 6 5 25 -16 25
-14 0 -17 -9 -17 -47z"/>
<path d="M740 300 c13 -9 13 -11 0 -20 -13 -9 -13 -11 0 -20 8 -5 18 -6 22 -2
12 12 -3 52 -21 52 -14 0 -14 -2 -1 -10z"/>
<path d="M1961 296 c-8 -9 -10 -24 -5 -38 4 -13 7 -30 5 -40 -1 -9 3 -19 9
-23 8 -5 10 0 8 12 -1 10 5 31 14 45 16 24 16 27 -1 42 -16 15 -20 15 -30 2z"/>
<path d="M1550 285 c0 -15 26 -32 36 -23 2 3 2 13 -2 22 -8 20 -34 21 -34 1z"/>
<path d="M930 270 c0 -5 -8 -10 -17 -10 -16 0 -16 -1 -1 -16 9 -9 21 -13 27
-10 14 9 15 46 1 46 -5 0 -10 -4 -10 -10z"/>
<path d="M1773 273 c-7 -2 -13 -9 -13 -15 0 -6 7 -7 18 -3 28 12 76 6 89 -12
17 -23 27 -10 12 15 -9 14 -23 20 -53 20 -23 0 -47 -2 -53 -5z"/>
<path d="M1331 240 c-1 -18 -4 -21 -10 -12 -6 10 -10 9 -14 -7 -7 -28 9 -36
29 -16 13 13 14 21 6 38 -11 22 -11 22 -11 -3z"/>
<path d="M1645 249 c-4 -6 2 -13 14 -16 12 -3 21 -12 21 -21 0 -12 3 -13 11
-5 13 13 5 29 -21 43 -13 7 -21 7 -25 -1z"/>
<path d="M2043 220 c-11 -17 -10 -18 5 -13 9 4 20 11 24 16 7 12 77 -18 79
-33 1 -6 2 -14 3 -19 2 -17 16 -24 16 -8 0 8 2 21 5 29 5 15 -59 48 -96 48
-13 0 -30 -9 -36 -20z"/>
<path d="M1523 222 c-8 -5 -8 -13 2 -32 8 -14 14 -19 15 -12 0 9 8 7 26 -7 27
-21 74 -29 74 -12 0 5 -14 11 -30 15 -17 3 -41 17 -53 31 -13 15 -27 22 -34
17z"/>
<path d="M1740 162 c0 -9 74 -42 94 -42 8 0 18 5 21 10 3 6 -4 10 -17 10 -14
0 -33 7 -44 15 -20 15 -54 20 -54 7z"/>
<path d="M2124 119 c-3 -6 -21 -9 -40 -7 -25 3 -31 1 -23 -8 6 -7 17 -10 25
-7 8 3 14 1 14 -5 0 -6 9 -6 25 1 14 7 25 18 25 25 0 15 -16 16 -26 1z"/>
</g>
</svg>
